<svg width="512" height="512" viewBox="0 0 512 512" fill="none" xmlns="http://www.w3.org/2000/svg">
<path d="M273.04 226.12C273.04 226.12 359.95 86.89 361.93 83.41C363.91 79.93 364.33 73.54 358.87 73.54C353.41 73.54 218.02 211.75 218.02 211.75L121.87 268.75C121.87 268.75 115.42 272.71 116.41 277.66C117.4 282.61 121.72 282.82 123.7 282.82C125.68 282.82 228.25 282.28 234.22 282.1C241.63 281.89 239.8 292.42 239.8 292.42L174.88 394.48C174.88 394.48 146.53 433.72 146.53 436.39C146.53 440.32 151.27 442.27 155.68 439.63C159.1 437.59 380.2 250.24 389.95 237.37C392.59 233.86 393.94 224.62 383.05 224.62C372.16 224.62 285.43 249.88 285.43 249.88L273.04 226.12Z" fill="#FEB804" style="fill:#FEB804;fill:color(display-p3 0.9961 0.7216 0.0157);fill-opacity:1;"/>
<path d="M257.83 215.05C255.16 218.71 254.44 224.83 260.2 225.19C265.93 225.52 383.05 224.65 383.05 224.65C383.05 224.65 299.38 301.54 274.06 324.49C248.74 347.44 164.89 421.78 159.25 427.03C153.73 432.19 148.72 436.93 146.68 436.27C146.35 436.18 145.93 434.41 153.82 421.42C161.02 409.57 230.14 293.74 232.84 289.36C235.54 284.98 237.91 281.26 239.26 279.22C240.61 277.18 244.99 266.05 235.87 266.05C226.75 266.05 121.87 268.75 121.87 268.75C121.87 268.75 194.32 207.28 215.26 190.75C236.2 174.22 354.88 73.54 358.87 73.54C362.86 73.54 260.53 211.36 257.83 215.05Z" fill="#FFC927" style="fill:#FFC927;fill:color(display-p3 1.0000 0.7882 0.1529);fill-opacity:1;"/>
<path d="M254.35 276.25C259.75 268.48 265.06 267.91 268.27 269.83C272.41 272.32 272.83 278.05 267.61 284.98C259.39 295.96 198.97 376.81 196.66 379.66C192.28 385.06 185.83 382.69 190.03 374.86C193.54 368.38 248.77 284.29 254.35 276.25Z" fill="#FFE567" style="fill:#FFE567;fill:color(display-p3 1.0000 0.8980 0.4039);fill-opacity:1;"/>
<path d="M168.49 260.47C158.14 267.4 148.51 257.05 155.44 249.46C162.37 241.87 207.85 204.01 217.06 196.18C226.27 188.35 280.03 141.58 284.2 138.22C289.72 133.78 293.14 138.28 289.66 142.9C286.21 147.52 248.2 185.5 231.43 200.92C218.47 212.86 178.33 253.87 168.49 260.47Z" fill="#FFE567" style="fill:#FFE567;fill:color(display-p3 1.0000 0.8980 0.4039);fill-opacity:1;"/>
</svg>
